PathFileType	4	(X/Y/Z)	OpenSim_Sub10_CSStiffKnee_Gyro.trc
DataRate	CameraRate	NumFrames	NumMarkers	Units	OrigDataRate	OrigDataStartFrame	OrigNumFrames
100	100	13	8	m	100	5109	8174
Frame#	Time	torso_imu_offset_imu	pelvis_imu_offset_imu	tibia_r_imu_offset_imu	femur_r_imu_offset_imu	tibia_l_imu_offset_imu	femur_l_imu_offset_imu	toes_r_imu_offset_imu	toes_l_imu_offset_imu
				X1	Y1	Z1	X2	Y2	Z2	X3	Y3	Z3	X4	Y4	Z4	X5	Y5	Z5	X6	Y6	Z6	X7	Y7	Z7	X8		Y8	Z8	

5109	51.08000000	0.04294984	-0.00447501	-0.20599445	-0.37680785	-0.13349035	-0.02900758	-0.12300587	0.09704704	-0.97477628	-0.40861348	0.07881119	-0.44527658	-0.65600602	0.04621240	-0.90767055	-0.99020015	-0.18431181	-0.50265398	0.10637408	-0.28837273	-0.30848653	-0.09171815	0.53218112	-0.81078341
5110	51.09000000	0.00410337	0.01523127	-0.26568214	-0.39751092	-0.17991553	-0.01836835	0.00705947	0.10910878	-1.04773954	-0.37214790	0.09456087	-0.40357274	-0.76685521	-0.00045384	-0.76966085	-1.05447604	-0.18324765	-0.49502217	0.12992277	-0.35156954	-0.34944635	-0.06826332	0.40611110	-0.85566652
5111	51.10000000	-0.04690000	0.04407452	-0.31073901	-0.42464540	-0.23540709	-0.01252476	0.09678225	0.09158333	-1.09594711	-0.35661739	0.11074735	-0.35238072	-0.89542759	-0.06223292	-0.61556618	-1.07215986	-0.23070403	-0.48385080	0.20082461	-0.41149105	-0.39641813	-0.05117105	0.23775334	-0.85111020
5112	51.11000000	-0.10501315	0.08407409	-0.33836850	-0.44462446	-0.30178015	-0.00174602	0.14058955	0.09181610	-1.13495509	-0.35460193	0.10954812	-0.29246557	-0.97930056	-0.11524786	-0.45020646	-0.97776215	-0.29910232	-0.47084529	0.18163240	-0.51319845	-0.41561209	-0.16342576	0.11090294	-0.78871245
5113	51.12000000	-0.15660160	0.12272705	-0.35695298	-0.45793156	-0.37661741	0.01663054	0.17474283	0.10744496	-1.18806890	-0.35077848	0.11208077	-0.24278817	-1.03380768	-0.13045233	-0.27592994	-0.80998281	-0.36000831	-0.44281354	0.13661479	-0.60836165	-0.39959373	-0.26096735	-0.01167321	-0.72663440
5114	51.13000000	-0.20745115	0.15835897	-0.37306466	-0.48872186	-0.46154236	0.03631045	0.19421333	0.11929848	-1.26838085	-0.33398606	0.13399958	-0.19353382	-1.18361203	-0.14469292	-0.09830281	-0.63864315	-0.39203964	-0.40177484	0.09887906	-0.69531896	-0.36898631	-0.16319088	-0.19161248	-0.69078421
5115	51.14000000	-0.26250419	0.21560464	-0.38829253	-0.54152813	-0.54192413	0.06159927	0.17447181	0.14207843	-1.34921974	-0.32576091	0.17206691	-0.14824011	-1.23073607	-0.19218133	0.08320735	-0.48628116	-0.39669128	-0.35772601	0.05964800	-0.78202310	-0.32338670	-0.07749070	-0.34876633	-0.68367821
5116	51.15000000	-0.32229784	0.28731713	-0.39739497	-0.61543868	-0.61077021	0.08289241	0.09827691	0.13885540	-1.43209065	-0.33759433	0.20499044	-0.09754972	-1.09539110	-0.27254936	0.29174670	-0.30386928	-0.40726055	-0.32865771	0.02446251	-0.90532505	-0.26900361	-0.04889248	-0.49921884	-0.69560329
5117	51.16000000	-0.37861079	0.36640220	-0.41305164	-0.71176268	-0.67524885	0.10555065	-0.01023543	0.11333470	-1.55644100	-0.34717961	0.21922263	-0.04055624	-0.98212730	-0.35854470	0.50899637	-0.11699374	-0.42188547	-0.31299187	-0.03402190	-1.04472745	-0.20716305	-0.11842503	-0.72676692	-0.77962463
5118	51.17000000	-0.45053745	0.44727901	-0.42879381	-0.81302130	-0.75248922	0.13931813	-0.12113947	0.10159081	-1.72895733	-0.37492602	0.20975315	0.02800579	-0.93870467	-0.41747760	0.68493557	0.02868595	-0.42580088	-0.27563097	-0.01612032	-1.21642778	-0.16644071	0.23795873	-0.90298740	-0.86697582
5119	51.18000000	-0.53071975	0.53096710	-0.43361404	-0.94458429	-0.80559102	0.16579605	-0.22019888	0.07073700	-1.89948508	-0.41775252	0.19503039	0.10823926	-0.93730552	-0.48007861	0.80866886	0.12122298	-0.43696165	-0.21588017	0.06504382	-1.42677014	-0.16632466	-0.64872440	-2.04082443	-0.67989562
5120	51.19000000	-0.62931159	0.61618216	-0.43094387	-1.07151346	-0.80998676	0.18185358	-0.32071523	-0.01086344	-2.08761855	-0.49429201	0.20123862	0.22268630	-1.18721215	-0.86053972	0.79060966	0.22241328	-0.53941154	-0.12860805	0.07586083	-1.68230351	-0.18893559	-0.38670815	-4.10616847	-0.57032575
5121	51.20000000	-0.78690988	0.56772687	-0.41711083	-1.11792504	-0.74239724	0.20198182	-0.34996949	-0.09715864	-2.35870290	-0.58655356	0.23740692	0.40298982	-1.35979598	-1.05807285	1.04511565	0.33276171	-0.73419452	-0.03859291	0.05668488	-1.93410526	-0.17637580	-1.21127645	-3.80198312	-0.10908599
